<svg width="53" height="57" viewBox="0 0 53 57" fill="none" xmlns="http://www.w3.org/2000/svg">
<path d="M29.3313 9.19012L29.3174 17.7314L29.3034 26.2728L28.65 24.29L28.6487 24.2862L27.8044 43.3015C28.6346 45.8229 29.0793 47.1688 29.0843 47.1742C29.0907 47.1813 29.564 47.212 30.1356 47.2425C31.8676 47.3349 34.0141 47.5329 35.6424 47.7506C36.0194 47.8009 36.3439 47.8268 36.3635 47.8078C36.383 47.7891 36.3935 39.0924 36.3871 28.482L36.3751 9.19012H29.3313Z" fill="#B1060F" stroke="black" stroke-width="0.611984"/>
<path d="M16.5911 9.16455V28.476C16.5911 39.0973 16.6008 47.7978 16.6126 47.8105C16.6244 47.8232 17.236 47.7611 17.9718 47.6725C18.7073 47.5839 19.7243 47.4737 20.2313 47.4276C21.0089 47.357 23.3306 47.1965 23.5993 47.1947C23.6775 47.1942 23.6825 46.7605 23.6939 39.0154L23.7059 30.8363L24.2676 32.5457L24.4663 33.1497L25.3104 14.1391L25.0203 13.2574C24.5871 11.9396 24.1535 10.6219 23.7196 9.30438L23.673 9.16455H16.5911Z" fill="#B1060F" stroke="black" stroke-width="0.611984"/>
<path d="M16.5911 9.16455V20.0046L23.6914 40.2609C23.6922 39.7967 23.6931 39.546 23.6939 39.0154L23.7059 30.8363L24.2676 32.5457C27.3946 42.0616 29.0744 47.1635 29.0844 47.1742C29.0908 47.1813 29.5641 47.212 30.1357 47.2425C31.8677 47.3349 34.0142 47.5329 35.6425 47.7506C36.0195 47.801 36.3439 47.8268 36.3636 47.8079C36.3768 47.795 36.3857 43.5306 36.388 37.5151L29.3208 15.6637L29.3175 17.7315L29.3034 26.2728L28.65 24.29C28.0115 22.3527 27.5853 21.0571 25.0203 13.2574C24.5871 11.9396 24.1535 10.6219 23.7196 9.30438L23.673 9.16455H16.5911Z" fill="url(#paint0_radial_113_47)"/>
<path d="M16.5911 9.16455L23.7057 30.8461V30.8363L24.2674 32.5457C27.3944 42.0616 29.0742 47.1635 29.0842 47.1742C29.0906 47.1813 29.5639 47.2121 30.1355 47.2426C31.8675 47.335 34.014 47.5329 35.6423 47.7507C36.0174 47.8008 36.34 47.8264 36.3628 47.8081L29.303 26.269V26.2728L28.6496 24.29C28.0111 22.3527 27.5848 21.0571 25.0199 13.2574C24.3301 11.16 23.7448 9.38142 23.7192 9.30438L23.6726 9.16455H16.5911Z" fill="#E50914"/>
<path d="M29.3313 9.19012L29.3174 17.7314L29.3034 26.2728L28.65 24.29L28.6487 24.2862L27.8044 43.3015C28.6346 45.8229 29.0793 47.1688 29.0843 47.1742C29.0907 47.1813 29.564 47.212 30.1356 47.2425C31.8676 47.3349 34.0141 47.5329 35.6424 47.7506C36.0194 47.8009 36.3439 47.8268 36.3635 47.8078C36.383 47.7891 36.3935 39.0924 36.3871 28.482L36.3751 9.19012H29.3313Z" fill="#B1060F" stroke="black" stroke-width="0.611984"/>
<path d="M16.5911 9.16455V28.476C16.5911 39.0973 16.6008 47.7978 16.6126 47.8105C16.6244 47.8232 17.236 47.7611 17.9718 47.6725C18.7073 47.5839 19.7243 47.4737 20.2313 47.4276C21.0089 47.357 23.3306 47.1965 23.5993 47.1947C23.6775 47.1942 23.6825 46.7605 23.6939 39.0154L23.7059 30.8363L24.2676 32.5457L24.4663 33.1497L25.3104 14.1391L25.0203 13.2574C24.5871 11.9396 24.1535 10.6219 23.7196 9.30438L23.673 9.16455H16.5911Z" fill="#B1060F" stroke="black" stroke-width="0.611984"/>
<path d="M16.5911 9.16455V20.0046L23.6914 40.2609C23.6922 39.7967 23.6931 39.546 23.6939 39.0154L23.7059 30.8363L24.2676 32.5457C27.3946 42.0616 29.0744 47.1635 29.0844 47.1742C29.0908 47.1813 29.5641 47.212 30.1357 47.2425C31.8677 47.3349 34.0142 47.5329 35.6425 47.7506C36.0195 47.801 36.3439 47.8268 36.3636 47.8079C36.3768 47.795 36.3857 43.5306 36.388 37.5151L29.3208 15.6637L29.3175 17.7315L29.3034 26.2728L28.65 24.29C28.0115 22.3527 27.5853 21.0571 25.0203 13.2574C24.5871 11.9396 24.1535 10.6219 23.7196 9.30438L23.673 9.16455H16.5911Z" fill="url(#paint1_radial_113_47)"/>
<path d="M16.5911 9.16455L23.7057 30.8461V30.8363L24.2674 32.5457C27.3944 42.0616 29.0742 47.1635 29.0842 47.1742C29.0906 47.1813 29.5639 47.2121 30.1355 47.2426C31.8675 47.335 34.014 47.5329 35.6423 47.7507C36.0174 47.8008 36.34 47.8264 36.3628 47.8081L29.303 26.269V26.2728L28.6496 24.29C28.0111 22.3527 27.5848 21.0571 25.0199 13.2574C24.3301 11.16 23.7448 9.38142 23.7192 9.30438L23.6726 9.16455H16.5911Z" fill="#E50914"/>
<defs>
<radialGradient id="paint0_radial_113_47" cx="0" cy="0" r="1" gradientUnits="userSpaceOnUse" gradientTransform="translate(26.1609 15.6199) scale(13.9446 14.9971)">
<stop/>
<stop offset="1" stop-opacity="0"/>
</radialGradient>
<radialGradient id="paint1_radial_113_47" cx="0" cy="0" r="1" gradientUnits="userSpaceOnUse" gradientTransform="translate(26.1609 15.6199) scale(13.9446 14.9971)">
<stop/>
<stop offset="1" stop-opacity="0"/>
</radialGradient>
</defs>
</svg>
